<svg id="Layer_1" data-name="Layer 1" xmlns="http://www.w3.org/2000/svg" viewBox="0 0 137.26718 41"><title>logo</title><path d="M4.94744,5.34656V9.43649H-.32406V13.163h5.2715V32.15828H9.94628V13.163h5.28019V9.43649H9.94628v-3.181c0-1.54506.409-1.954,1.99948-1.954h3.28071V.34785H10.44608C6.7651.34785,4.94744,2.16551,4.94744,5.34656Z"/><path d="M135.282,8.75488c-1.45437,0-2.205,1.40739-2.205,2.81516,0,1.31348.563,2.11112.563,3.84691,0,4.08166-3.14336,8.96133-5.11395,12.47989-.93816-4.504-.8444-19.142-7.45967-19.142-3.8003,0-5.067,3.98774-5.067,7.08431,0,.86043.28645,1.63349,1.02022,1.5375.674-.08817.68133-.73564.49209-1.32422a3.92276,3.92276,0,0,1-.2924-1.70937,2.13709,2.13709,0,0,1,2.252-2.11629c3.04944,0,4.8793,8.25729,5.48929,13.65286l.4221,3.89378.1407,2.4399L122.99,35.169c-1.54831,1.78273-2.95568,2.252-3.98795,2.252-.75066,0-1.36062-.32836-1.9704-.32836a1.71634,1.71634,0,0,0-1.689,1.92325A1.95488,1.95488,0,0,0,117.266,40.893c3.75332,0,6.94385-4.7858,8.9612-7.36615,3.28406-4.22258,10.8846-17.12442,10.8846-22.28549C137.11184,10.02178,136.64261,8.75488,135.282,8.75488Z"/><path d="M79.87186,21.70629c0,5.54414-2.045,7.4073-5.45329,7.4073-2.59027,0-4.36258-.99973-4.36258-5.81676V9.43649H65.0573V24.342c0,6.22574,3.0447,8.49787,7.90708,8.49787,3.0447,0,5.77141-1.0451,7.27095-3.77179v3.09016h4.63524V9.43649H79.87186Z"/><rect x="90.50413" y="0.34785" width="4.99884" height="31.81044"/><path d="M51.51636,29.11359c-3.45369,0-5.40767-1.99948-5.40767-8.31619a20.1615,20.1615,0,0,1,.25663-3.43487c.63362-3.63283,2.42444-4.88133,5.151-4.88133,3.12186,0,4.20554,1.72574,4.345,4.88133h5.08837c-.22406-4.86392-2.689-8.60765-9.4334-8.60765-6.81975,0-9.63856,3.90587-10.40352,8.60765a18.61138,18.61138,0,0,0-.23016,2.98042v.90889c0,5.9076,2.40844,11.58807,10.63368,11.58807,7.08929,0,9.45225-4.13528,9.45225-9.36127H55.87892C55.87892,27.11411,54.87919,29.11359,51.51636,29.11359Z"/><path d="M108.40847,26.15971V13.163h5.27775V9.43649h-5.27775V.34785h-4.99884V9.43649H98.13571V13.163h5.27392V27.15944c0,3.18116,1.81782,4.99884,4.99884,4.99884h6.08941v-3.9536h-4.04444C108.95376,28.20468,108.40847,27.65941,108.40847,26.15971Z"/><path d="M36.11253,25.93256V15.935c0-4.95335-2.99921-7.18013-9.17959-7.18013-7.555,0-9.42046,3.99106-9.53678,8.60765h5.08335v-.2006c0-3.45368,1.36322-4.68073,4.45343-4.68073,3.04471,0,4.18075,1.09071,4.18075,3.681v1.45419c-.22715.22715-.59075.36346-2.18127.68159l-5.49866,1.09073c-5.226.99973-6.72567,3.54451-6.72567,6.49841v.45442c0,2.95386,1.95414,6.36207,7.63458,6.36207,4.13543,0,6.54387-1.68136,7.90723-4.18077.22716,2.27211,1.81767,3.63546,4.54426,3.63546h2.45393v-3.9536H38.1575C36.567,28.20468,36.11253,27.52309,36.11253,25.93256ZM31.341,22.706c0,4.04446-2.59027,6.31673-5.95311,6.31673-2.45394,0-3.45383-1.36334-3.45383-3.272,0-1.545.45445-2.8629,3.22653-3.45367l3.9991-.77259c1.59052-.31812,1.954-.45444,2.18131-.68163Z"/></svg>